<svg width="137" height="42" viewBox="0 0 137 42" fill="none" xmlns="http://www.w3.org/2000/svg">
<g clip-path="url(#clip0_15_869)">
<path d="M0 41.5069L17.2122 11.9844L20.6071 17.7199L17.2122 23.504H24.0503L27.4008 29.7529H13.4907L6.83811 41.5069H0Z" fill="#00958E"/>
<path d="M48.0562 41.5069H13.91L17.3533 35.5369H38.1458L20.7481 5.45665L24.143 0L48.0522 41.5069H48.0562Z" fill="#00958E"/>
<path d="M60.6197 1.20047H62.4501L66.3208 10.3191H64.2443L63.4178 8.29007H59.5996L58.773 10.3191H56.749L60.6197 1.20047ZM62.7122 6.52777L61.5107 3.59331L60.3092 6.52777H62.7082H62.7122Z" fill="#111111"/>
<path d="M68.6956 1.26514H70.6833V5.22221L74.3201 1.26514H76.7594L73.0702 5.105L76.9166 10.3191H74.5297L71.7316 6.4631L70.6873 7.55038V10.3191H68.6996V1.26514H68.6956Z" fill="#111111"/>
<path d="M81.9323 1.20047H83.7628L87.6334 10.3191H85.5569L84.7304 8.29007H80.9122L80.0857 10.3191H78.0616L81.9323 1.20047ZM84.0248 6.52777L82.8233 3.59331L81.6218 6.52777H84.0208H84.0248Z" fill="#111111"/>
<path d="M90.0122 1.26514H93.5321C96.3705 1.26514 98.33 3.2174 98.33 5.76384V5.78809C98.33 8.33452 96.3705 10.3151 93.5321 10.3151H90.0122V1.26514ZM91.9999 3.05977V8.51641H93.5361C95.1489 8.51641 96.2576 7.417 96.2576 5.81234V5.78809C96.2576 4.18343 95.1489 3.05977 93.5361 3.05977H91.9999Z" fill="#111111"/>
<path d="M101.08 1.26514H107.89V3.03551H103.051V4.87056H107.309V6.64094H103.051V8.54066H107.954V10.311H101.08V1.26514Z" fill="#111111"/>
<path d="M110.704 1.26514H112.845L115.22 5.09287L117.594 1.26514H119.735V10.3191H117.764V4.40978L115.224 8.27794H115.171L112.655 4.4502V10.3232H110.708V1.26514H110.704Z" fill="#111111"/>
<path d="M122.977 1.26514H124.965V10.3191H122.977V1.26514Z" fill="#111111"/>
<path d="M131.299 1.20047H133.129L137 10.3191H134.924L134.097 8.29007H130.279L129.452 10.3191H127.424L131.295 1.20047H131.299ZM133.387 6.52777L132.19 3.59331L130.988 6.52777H133.387Z" fill="#111111"/>
<path d="M57.5231 17.0288H59.5109V24.272H64.0145V26.0828H57.5272V17.0288H57.5231Z" fill="#111111"/>
<path d="M66.4901 17.0288H73.3V18.7992H68.4617V20.6342H72.7194V22.4046H68.4617V24.3043H73.3645V26.0747H66.4901V17.0207V17.0288Z" fill="#111111"/>
<path d="M76.1143 17.0288H78.102V20.9859L81.7388 17.0288H84.1781L80.4889 20.8686L84.3353 26.0828H81.9484L79.1503 22.2267L78.106 23.314V26.0828H76.1183V17.0288H76.1143Z" fill="#111111"/>
<path d="M89.355 16.9641H91.1855L95.0561 26.0828H92.9797L92.1531 24.0537H88.3349L87.5084 26.0828H85.4844L89.355 16.9641ZM91.4435 22.2914L90.242 19.357L89.0445 22.2914H91.4435Z" fill="#111111"/>
<path d="M97.4309 17.0288H101.56C102.709 17.0288 103.584 17.34 104.192 17.9463C104.708 18.4637 104.967 19.1508 104.967 20.0158V20.0401C104.967 21.5032 104.18 22.4208 103.031 22.8452L105.237 26.0787H102.914L100.979 23.1807H99.4186V26.0787H97.4309V17.0247V17.0288ZM101.431 21.4224C102.41 21.4224 102.955 20.9172 102.955 20.1411V20.1168C102.955 19.2519 102.374 18.8234 101.394 18.8234H99.4186V21.4224H101.431Z" fill="#111111"/>
<path d="M107.466 24.567L112.434 18.7749H107.62V17.0288H114.986V18.5405L110.018 24.3326H114.986V26.0787H107.466V24.567Z" fill="#111111"/>
<path d="M120.949 16.9641H122.779L126.65 26.0828H124.574L123.747 24.0537H119.929L119.102 26.0828H117.078L120.949 16.9641ZM123.042 22.2914L121.84 19.357L120.643 22.2914H123.042Z" fill="#111111"/>
<path d="M57.124 37.3437V37.3194C57.124 34.7447 59.148 32.6388 61.9381 32.6388C64.7281 32.6388 66.7239 34.7204 66.7239 37.2952V37.3194C66.7239 39.8941 64.6999 42 61.9098 42C59.1198 42 57.124 39.9184 57.124 37.3437ZM64.6435 37.3437V37.3194C64.6435 35.7673 63.5065 34.4739 61.9098 34.4739C60.3132 34.4739 59.2004 35.743 59.2004 37.2911V37.3154C59.2004 38.8675 60.3334 40.1609 61.934 40.1609C63.5347 40.1609 64.6435 38.8917 64.6435 37.3437Z" fill="#111111"/>
<path d="M69.4697 32.7884H71.3002L75.5296 38.3623V32.7884H77.4891V41.8424H75.7998L71.4251 36.0866V41.8424H69.4656V32.7884H69.4697Z" fill="#111111"/>
<path d="M85.4965 32.7884H87.4842V40.0316H91.9878V41.8424H85.5005V32.7884H85.4965Z" fill="#111111"/>
<path d="M94.5521 32.7884H96.5399V41.8424H94.5521V32.7884Z" fill="#111111"/>
<path d="M99.7775 32.7884H101.608L105.841 38.3623V32.7884H107.801V41.8424H106.112L101.737 36.0866V41.8424H99.7775V32.7884Z" fill="#111111"/>
<path d="M110.95 32.7884H117.764V34.5588H112.925V36.3938H117.183V38.1642H112.925V40.0639H117.828V41.8343H110.954V32.7803L110.95 32.7884Z" fill="#111111"/>
</g>
<defs>
<clipPath id="clip0_15_869">
<rect width="137" height="42" fill="white"/>
</clipPath>
</defs>
</svg>
